<svg xmlns="http://www.w3.org/2000/svg" xmlns:xlink="http://www.w3.org/1999/xlink" x="0px" y="0px" viewBox="0 0 1603.27 1603.27" style="enable-background:new 0 0 1603.27 1603.27;" xml:space="preserve"><style type="text/css">	.st0{fill:#D3CDFB;stroke:#373380;stroke-miterlimit:10;}	.st1{clip-path:url(#SVGID_2_);}	.st2{fill:none;stroke:#000000;stroke-width:2;stroke-miterlimit:10;}	.st3{fill:#AEA5F8;stroke:#373380;stroke-miterlimit:10;}	.st4{clip-path:url(#SVGID_4_);}	.st5{fill:#736ED9;stroke:#373380;stroke-miterlimit:10;}	.st6{clip-path:url(#SVGID_6_);}	.st7{fill:#373380;}	.st8{clip-path:url(#SVGID_8_);}	.st9{fill:none;stroke:#FFFFFF;stroke-width:2;stroke-miterlimit:10;}	.st10{clip-path:url(#SVGID_18_);}	.st11{fill:#D3CDFB;}	.st12{opacity:0.9976;fill:#CEC8F9;}	.st13{opacity:0.9952;fill:#CAC4F8;}	.st14{opacity:0.9929;fill:#C5BFF6;}	.st15{opacity:0.9905;fill:#C1BBF5;}	.st16{opacity:0.9881;fill:#BCB6F3;}	.st17{opacity:0.9857;fill:#B8B2F1;}	.st18{opacity:0.9833;fill:#B3ADF0;}	.st19{opacity:0.981;fill:#AEA9EE;}	.st20{opacity:0.9786;fill:#AAA4EC;}	.st21{opacity:0.9762;fill:#A5A0EB;}	.st22{opacity:0.9738;fill:#A19BE9;}	.st23{opacity:0.9714;fill:#9C97E8;}	.st24{opacity:0.969;fill:#9892E6;}	.st25{opacity:0.9667;fill:#938EE4;}	.st26{opacity:0.9643;fill:#8E89E3;}	.st27{opacity:0.9619;fill:#8A85E1;}	.st28{opacity:0.9595;fill:#8580DF;}	.st29{opacity:0.9571;fill:#817CDE;}	.st30{opacity:0.9548;fill:#7C77DC;}	.st31{opacity:0.9524;fill:#7873DB;}	.st32{opacity:0.95;fill:#736ED9;}</style><g id="Layer_1"></g><g id="Layer_2"></g><g id="Layer_3"></g><g id="Layer_4"></g><g id="Layer_5"></g><g id="Layer_6"></g><g id="Layer_7">	<g>		<path class="st5" d="M1004.85,1555.43c-13.19,0-26.31-0.61-39.32-1.83c-48.75-4.58-96.82-19.9-142.86-45.52   c-40.51-22.54-79.47-53.07-115.8-90.73c-62.01-64.29-115.63-148.93-150.98-238.34c-26.68-67.48-39.55-136.78-38.24-205.98   c1.36-72.08,18.09-141.03,49.72-204.94c-29.41-3.36-58.16-9.31-85.93-17.8c-96.38-29.46-175.85-87.83-229.81-168.78   c-56.14-84.21-71.85-176.73-44.25-260.5c14.6-44.3,40.32-83.99,76.45-117.98c35.47-33.36,79.41-59.64,130.59-78.1   c69.3-25,147.19-34.69,238.09-29.61l-6.18,110.83c-75.72-4.22-139.26,3.37-194.25,23.2C380.63,255.1,331.16,300,312.79,355.74   c-16.94,51.4-6.15,108.18,31.19,164.19c39.58,59.37,98.33,102.32,169.9,124.2c36.45,11.14,75.69,16.51,115.48,16.12   c54.86-83.15,120.53-155.78,191.1-210.47c48.11-37.28,95.58-63.97,141.11-79.33c52.21-17.61,99.27-19.43,139.87-5.41   c25.65,8.86,46.2,21.87,61.1,38.65c17.98,20.26,26.98,45.06,26.05,71.72c-3.67,104.69-159.07,205.92-426.33,277.73   c-22.53,6.05-45.36,10.61-68.31,13.65c-9.43,16.33-18.38,33-26.82,49.97c-48.52,97.62-51.36,211.76-8.01,321.42   c30.14,76.23,75.47,148,127.65,202.09c28.72,29.77,58.96,53.59,89.89,70.8c32.53,18.1,65.93,28.87,99.28,32.01   c70.84,6.66,147.11-11.5,220.59-52.51c69.64-38.88,130.7-95.29,171.91-158.86c29.97-46.22,45.46-94.42,46.05-143.25   c0.48-39.43-8.61-80.07-27-120.81c-31.94-70.73-81.13-117.36-81.62-117.81l75.35-81.51c2.67,2.47,65.82,61.46,107.44,153.64   c57.18,126.63,47.81,254.62-27.08,370.13c-50.88,78.47-125.79,147.87-210.95,195.4   C1170.41,1532.26,1086.23,1555.43,1004.85,1555.43z M1043.57,466.69c-39.44,0-97.15,25.9-155.12,70.82   c-33.2,25.72-65.45,56.43-96.17,91.53c108.88-33.46,175.3-66.8,213.27-90.32c48.48-30.03,66.34-53.61,70.89-63.67   c-2.31-1.43-5.96-3.27-11.25-5.1C1058.84,467.76,1051.58,466.69,1043.57,466.69z"></path>		<g>			<defs>				<path id="SVGID_13_" d="M1004.85,1555.43c-13.19,0-26.31-0.61-39.32-1.83c-48.75-4.58-96.82-19.9-142.86-45.52     c-40.51-22.54-79.47-53.07-115.8-90.73c-62.01-64.29-115.63-148.93-150.98-238.34c-26.68-67.48-39.55-136.78-38.24-205.98     c1.36-72.08,18.09-141.03,49.72-204.94c-29.41-3.36-58.16-9.31-85.93-17.8c-96.38-29.46-175.85-87.83-229.81-168.78     c-56.14-84.21-71.85-176.73-44.25-260.5c14.6-44.3,40.32-83.99,76.45-117.98c35.47-33.36,79.41-59.64,130.59-78.1     c69.3-25,147.19-34.69,238.09-29.61l-6.18,110.83c-75.72-4.22-139.26,3.37-194.25,23.2C380.63,255.1,331.16,300,312.79,355.74     c-16.94,51.4-6.15,108.18,31.19,164.19c39.58,59.37,98.33,102.32,169.9,124.2c36.45,11.14,75.69,16.51,115.48,16.12     c54.86-83.15,120.53-155.78,191.1-210.47c48.11-37.28,95.58-63.97,141.11-79.33c52.21-17.61,99.27-19.43,139.87-5.41     c25.65,8.86,46.2,21.87,61.1,38.65c17.98,20.26,26.98,45.06,26.05,71.72c-3.67,104.69-159.07,205.92-426.33,277.73     c-22.53,6.05-45.36,10.61-68.31,13.65c-9.43,16.33-18.38,33-26.82,49.97c-48.52,97.62-51.36,211.76-8.01,321.42     c30.14,76.23,75.47,148,127.65,202.09c28.72,29.77,58.96,53.59,89.89,70.8c32.53,18.1,65.93,28.87,99.28,32.01     c70.84,6.66,147.11-11.5,220.59-52.51c69.64-38.88,130.7-95.29,171.91-158.86c29.97-46.22,45.46-94.42,46.05-143.25     c0.48-39.43-8.61-80.07-27-120.81c-31.94-70.73-81.13-117.36-81.62-117.81l75.35-81.51c2.67,2.47,65.82,61.46,107.44,153.64     c57.18,126.63,47.81,254.62-27.08,370.13c-50.88,78.47-125.79,147.87-210.95,195.4     C1170.41,1532.26,1086.23,1555.43,1004.85,1555.43z M1043.57,466.69c-39.44,0-97.15,25.9-155.12,70.82     c-33.2,25.72-65.45,56.43-96.17,91.53c108.88-33.46,175.3-66.8,213.27-90.32c48.48-30.03,66.34-53.61,70.89-63.67     c-2.31-1.43-5.96-3.27-11.25-5.1C1058.84,467.76,1051.58,466.69,1043.57,466.69z"></path>			</defs>			<clipPath id="SVGID_2_">				<use xlink:href="#SVGID_13_" style="overflow:visible;"></use>			</clipPath>		</g>	</g></g><g id="Layer_8"></g><g id="Layer_9"></g></svg>